# xmcd
#
# Track frame offsets: 
#        150
#        14873
#        28104
#        39046
#        59295
#        76246
#        89165
#        99641
#        109557
#        120816
#        135812
#        146947
#        165431
#        179488
#        194216
#        211051
#        224099
#        239901
#
# Disc length: 3305 seconds
#
# Revision: 0
# Processed by: cddbd v1.5.2PL0 Copyright (c) Steve Scherf et al.
# Submitted via: ExactAudioCopyFreeDBPlugin 1.0
#
DISCID=070ce712
DTITLE=Various Artist - Faith, Hope and Country - God Bless America - D
DTITLE=isc 1
DYEAR=2016
DGENRE=Country
TTITLE0=Lee Greenwood - God Bless The U.S.A.
TTITLE1=The Statler Brothers - More Than A Name On A Wall
TTITLE2=Tennessee Ernie Ford - This Is My Country
TTITLE3=Anne Murray - Bridge Over Troubled Water
TTITLE4=Waylon Jennings - America
TTITLE5=Jimmy Wakely - There's A Star-Spangled Banner Waving Somewhere
TTITLE6=Lee Greenwood - God Bless America
TTITLE7=Pat Boone - America (My Country 'Tis Of Thee)
TTITLE8=Loretta Lynn - Living In God's Country
TTITLE9=Glen Campbell - God Must Have Blessed America
TTITLE10=Charlie Rich - America, The Beautiful
TTITLE11=Andy Griffith - Onward Christian Soldiers - Stand Up, Stand U
TTITLE11=p For Jesus
TTITLE12=Tex Ritter - Deck Of Cards
TTITLE13=Loretta Lynn and Conway Twitty - God Bless America Again
TTITLE14=Donna Fargo - U.S. of A.
TTITLE15=Johnny Cash - This Land Is Your Land
TTITLE16=Barbara Mandrell - The Battle Hymn Of The Republic
TTITLE17=The Statler Brothers - Star Spangled Banner
EXTD=
EXTT0=
EXTT1=
EXTT2=
EXTT3=
EXTT4=
EXTT5=
EXTT6=
EXTT7=
EXTT8=
EXTT9=
EXTT10=
EXTT11=
EXTT12=
EXTT13=
EXTT14=
EXTT15=
EXTT16=
EXTT17=
PLAYORDER=
